ffmpeg version 3.4.8-0ubuntu0.2 Copyright (c) 2000-2020 the FFmpeg developers
  built with gcc 7 (Ubuntu 7.5.0-3ubuntu1~18.04)
  configuration: --prefix=/usr --extra-version=0ubuntu0.2 --toolchain=hardened --libdir=/usr/lib/x86_64-linux-gnu --incdir=/usr/include/x86_64-linux-gnu --enable-gpl --disable-stripping --enable-avresample --enable-avisynth --enable-gnutls --enable-ladspa --enable-libass --enable-libbluray --enable-libbs2b --enable-libcaca --enable-libcdio --enable-libflite --enable-libfontconfig --enable-libfreetype --enable-libfribidi --enable-libgme --enable-libgsm --enable-libmp3lame --enable-libmysofa --enable-libopenjpeg --enable-libopenmpt --enable-libopus --enable-libpulse --enable-librubberband --enable-librsvg --enable-libshine --enable-libsnappy --enable-libsoxr --enable-libspeex --enable-libssh --enable-libtheora --enable-libtwolame --enable-libvorbis --enable-libvpx --enable-libwavpack --enable-libwebp --enable-libx265 --enable-libxml2 --enable-libxvid --enable-libzmq --enable-libzvbi --enable-omx --enable-openal --enable-opengl --enable-sdl2 --enable-libdc1394 --enable-libdrm --enable-libiec61883 --enable-chromaprint --enable-frei0r --enable-libopencv --enable-libx264 --enable-shared
  libavutil      55. 78.100 / 55. 78.100
  libavcodec     57.107.100 / 57.107.100
  libavformat    57. 83.100 / 57. 83.100
  libavdevice    57. 10.100 / 57. 10.100
  libavfilter     6.107.100 /  6.107.100
  libavresample   3.  7.  0 /  3.  7.  0
  libswscale      4.  8.100 /  4.  8.100
  libswresample   2.  9.100 /  2.  9.100
  libpostproc    54.  7.100 / 54.  7.100
[rawvideo @ 0x55ac5e55ba20] Estimating duration from bitrate, this may be inaccurate
Input #0, rawvideo, from '../../SVC-Encoder-20220109T061506Z-001/SVC-Encoder/Dataset/RollerCoaster/ERP_8x8/tile_yuv/Tile_55_480x240.yuv':
  Duration: 00:00:10.00, start: 0.000000, bitrate: 41472 kb/s
    Stream #0:0: Video: rawvideo (I420 / 0x30323449), yuv420p, 480x240, 41472 kb/s, 30 tbr, 30 tbn, 30 tbc
Stream mapping:
  Stream #0:0 -> #0:0 (rawvideo (native) -> h264 (libx264))
Press [q] to stop, [?] for help
[libx264 @ 0x55ac5e568c60] using cpu capabilities: MMX2 SSE2Fast LZCNT SSSE3 SSE4.2 AVX
[libx264 @ 0x55ac5e568c60] profile High, level 2.1
Output #0, rawvideo, to 'RollerCoaster_Tile_55_480x240_x264_QP_28.h264':
  Metadata:
    encoder         : Lavf57.83.100
    Stream #0:0: Video: h264 (libx264), yuv420p, 480x240, q=-1--1, 30 fps, 30 tbn, 30 tbc
    Metadata:
      encoder         : Lavc57.107.100 libx264
    Side data:
      cpb: bitrate max/min/avg: 0/0/0 buffer size: 0 vbv_delay: -1
frame=  215 fps=0.0 q=34.0 PSNR=Y:nan U:nan V:nan *:nan size=      46kB time=00:00:05.73 bitrate=  65.9kbits/s speed=11.4x    frame=  300 fps=0.0 q=34.0 LPSNR=Y:inf U:inf V:inf *:inf size=      75kB time=00:00:09.93 bitrate=  62.2kbits/s speed=  14x    
video:75kB audio:0kB subtitle:0kB other streams:0kB global headers:0kB muxing overhead: 0.000000%
[libx264 @ 0x55ac5e568c60] frame I:2     Avg QP:24.28  size:  8934  PSNR Mean Y:44.71 U:48.05 V:45.76 Avg:45.29 Global:45.29
[libx264 @ 0x55ac5e568c60] frame P:77    Avg QP:26.20  size:   516  PSNR Mean Y:43.00 U:47.59 V:45.63 Avg:43.88 Global:43.85
[libx264 @ 0x55ac5e568c60] frame B:221   Avg QP:33.40  size:    89  PSNR Mean Y:42.83 U:47.56 V:45.53 Avg:43.73 Global:43.71
[libx264 @ 0x55ac5e568c60] consecutive B-frames:  1.0%  2.0%  1.0% 96.0%
[libx264 @ 0x55ac5e568c60] mb I  I16..4: 13.3% 75.0% 11.7%
[libx264 @ 0x55ac5e568c60] mb P  I16..4:  0.2%  0.1%  0.0%  P16..4: 33.4%  5.4%  1.0%  0.0%  0.0%    skip:60.1%
[libx264 @ 0x55ac5e568c60] mb B  I16..4:  0.0%  0.0%  0.0%  B16..8: 16.4%  0.2%  0.0%  direct: 0.0%  skip:83.4%  L0:36.0% L1:63.7% BI: 0.2%
[libx264 @ 0x55ac5e568c60] 8x8 transform intra:71.1% inter:85.2%
[libx264 @ 0x55ac5e568c60] coded y,uvDC,uvAC intra: 68.3% 82.1% 46.5% inter: 1.9% 2.8% 0.0%
[libx264 @ 0x55ac5e568c60] i16 v,h,dc,p: 14% 47% 17% 23%
[libx264 @ 0x55ac5e568c60] i8 v,h,dc,ddl,ddr,vr,hd,vl,hu:  7% 38% 13%  6%  4%  4% 14%  5% 10%
[libx264 @ 0x55ac5e568c60] i4 v,h,dc,ddl,ddr,vr,hd,vl,hu: 10% 31% 14%  6%  7%  5% 12%  6%  9%
[libx264 @ 0x55ac5e568c60] i8c dc,h,v,p: 37% 42%  8% 13%
[libx264 @ 0x55ac5e568c60] Weighted P-Frames: Y:1.3% UV:0.0%
[libx264 @ 0x55ac5e568c60] ref P L0: 62.2% 16.3% 16.5%  4.9%  0.1%
[libx264 @ 0x55ac5e568c60] ref B L0: 72.6% 24.1%  3.4%
[libx264 @ 0x55ac5e568c60] ref B L1: 82.1% 17.9%
[libx264 @ 0x55ac5e568c60] PSNR Mean Y:42.885 U:47.568 V:45.559 Avg:43.780 Global:43.759 kb/s:61.80
